# 3ds Max Wavefront OBJ Exporter v0.97b - (c)2007 guruware
# File Created: 23.02.2016 18:09:26

mtllib godzillaRightLeg.mtl

#
# object leg_right
#

v  -25.4234 107.9408 -0.1925
v  -23.5569 108.7368 9.0856
v  -19.5241 116.4068 -4.6381
v  -23.3055 111.8990 -12.8126
v  -25.5090 105.0340 -17.4548
v  -36.2549 72.2213 10.3798
v  -28.3396 87.4223 17.5451
v  -36.8287 84.6889 1.4392
v  -28.4657 75.7293 24.7408
v  -17.2310 75.5750 25.0896
v  -18.6730 89.2892 16.6391
v  -34.5122 59.1581 17.7400
v  -29.3733 63.5849 28.3058
v  -28.8401 55.9848 29.7670
v  -34.6390 50.9336 18.5618
v  -17.8464 55.9105 29.6250
v  -16.9539 65.6169 28.8628
v  -29.5452 49.9148 28.3720
v  -15.7519 50.2814 27.4145
v  -29.3313 44.6419 25.8422
v  -15.6863 45.9240 24.8379
v  -35.4725 51.9258 6.3760
v  -33.6406 56.4952 3.9723
v  -11.8529 52.0967 21.4849
v  -10.9178 53.6718 21.8054
v  -11.6406 50.0218 8.1488
v  -10.5780 52.0780 7.3490
v  -16.6143 49.4285 -0.8886
v  -10.9185 40.1766 2.0040
v  -10.7683 56.2510 -2.7983
v  -8.0901 62.0909 9.4585
v  -16.3089 22.3033 -2.4067
v  -13.8723 22.6703 3.1510
v  -11.7799 21.3417 11.5154
v  -10.8428 40.6908 17.9134
v  -15.7588 17.1036 -0.9615
v  -16.4432 16.7616 -5.7694
v  -12.5771 13.9014 2.9774
v  -17.4390 12.4551 -7.6904
v  -15.3206 12.5132 -1.2455
v  -16.5227 8.7933 -4.7084
v  -13.2702 13.7578 11.3879
v  -13.9090 5.9034 1.1232
v  -16.1692 7.6381 16.8091
v  -18.7613 14.0893 17.1650
v  -18.1141 5.5455 22.1300
v  -21.2183 8.3833 22.9701
v  -20.9490 10.8334 19.3264
v  -26.1289 9.0079 18.6841
v  -24.1663 6.3974 22.4884
v  -22.8809 3.8961 27.7398
v  -29.5837 14.8921 15.4015
v  -28.0884 34.4447 20.5343
v  -32.9134 17.1705 8.7015
v  -34.2437 37.1048 15.3946
v  -36.4669 41.3251 4.7394
v  -27.8375 50.6415 -2.8842
v  -28.2043 42.5440 -6.4576
v  -28.8666 21.8551 -1.5183
v  -17.3597 41.9174 -4.5741
v  -23.4946 24.4625 -5.7411
v  -28.2518 12.0489 -6.5412
v  -23.5864 17.2015 -8.3087
v  -24.0921 12.4762 -9.3533
v  -26.9040 16.2869 -5.9565
v  -33.0986 14.6338 1.7879
v  -31.6552 9.3163 2.0624
v  -33.5652 13.8668 8.9445
v  -29.6290 8.7937 -2.0303
v  -33.4931 10.1346 9.5865
v  -35.4380 6.0349 7.8651
v  -36.6514 1.2957 6.9497
v  -34.1304 6.3888 14.0545
v  -30.9579 11.2031 17.5438
v  -38.6027 1.6307 11.7877
v  -26.0381 8.7853 -6.3136
v  -26.5869 4.3246 -5.4002
v  -31.5418 1.2352 -1.7109
v  -23.3884 9.1221 -6.3106
v  -22.8281 1.5732 -1.4318
v  -27.2540 0.6452 -2.2608
v  -33.8129 0.4204 4.8121
v  -30.2123 79.2129 -22.9037
v  -33.6879 75.2761 -10.2378
v  -31.6805 86.0957 -17.9797
v  -26.5173 98.5345 10.4565
v  -33.8376 95.9607 -6.5313
v  -34.2419 62.3320 -3.4530
v  -29.0320 51.9767 -3.9814
v  -29.1459 62.6992 -15.6726
v  -15.6402 56.7017 -10.9678
v  -16.1218 49.8597 -3.8133
v  -14.5426 34.9876 21.9348
v  -6.5744 61.6595 -1.3965
v  -5.5373 65.5245 4.1910
v  -9.2051 64.8970 21.7462
v  -14.0741 84.9506 16.2220
v  -8.5985 74.1769 13.0752
v  -34.4015 3.4799 18.8921
v  -34.4736 3.0059 24.2771
v  -32.0602 7.6891 20.4765
v  -13.1010 5.0547 14.1838
v  -7.0114 4.4221 13.8401
v  -10.2177 8.0304 12.4781
v  -34.2912 0.7488 19.6445
v  -28.1147 1.5497 19.2823
v  -30.9612 1.0061 23.4353
v  -33.7729 0.8690 14.7913
v  -15.7064 0.9304 14.3401
v  -17.8739 0.8148 17.4827
v  -25.3217 1.3021 20.4543
v  -18.4022 0.4175 24.6398
v  -22.4134 0.1739 28.2701
v  -23.4129 0.0101 4.4561
v  -13.4136 1.1262 -0.6419
v  -12.5919 0.3220 13.7533
v  -7.2557 1.2081 11.2286
v  -23.6520 102.9092 9.6240
v  -8.7702 4.2892 8.1468
v  -6.4893 1.4016 14.9691
v  -16.6894 1.0651 -2.7870
v  -30.4066 4.9981 21.6414
v  -34.2467 0.6866 25.0143
v  -36.7783 1.7542 14.3703
v  -38.2557 0.0632 13.9656
v  -37.7111 -0.5820 10.4850
v  -37.1512 -1.1874 15.8525
v  -25.2026 92.4543 -26.9766
v  -18.7893 94.4548 15.0932
v  -16.7969 65.2953 -20.0858
v  -24.0033 68.0177 -24.6853
v  -7.5891 61.5976 -6.5717
v  -7.7792 75.7617 12.2826
v  -14.0500 86.4861 16.5050
v  -35.0551 0.1859 12.7614
# 135 vertices

vn -0.8521 0.5091 0.1216
vn -0.9585 0.2263 0.1734
vn -0.8018 0.5938 0.0669
vn -0.9033 0.4287 -0.0172
vn -0.8828 0.4051 -0.2378
vn -0.9810 0.0531 0.1864
vn -0.5250 0.4840 0.7001
vn -0.9801 0.1770 0.0903
vn -0.5114 0.3681 0.7765
vn 0.3523 0.4210 0.8359
vn 0.1526 0.4275 0.8910
vn -0.9679 0.0500 0.2463
vn -0.5716 0.1827 0.7999
vn -0.4710 -0.0020 0.8821
vn -0.9561 -0.0404 0.2902
vn 0.3382 -0.0855 0.9372
vn 0.3374 0.1881 0.9224
vn -0.4991 -0.2701 0.8234
vn 0.5160 -0.3028 0.8013
vn -0.4381 -0.3980 0.8060
vn 0.4790 -0.3268 0.8147
vn -0.9585 0.1186 -0.2592
vn -0.9610 -0.1047 -0.2558
vn 0.8889 -0.3569 0.2874
vn 0.8877 -0.2925 0.3556
vn 0.9718 -0.1734 -0.1598
vn 0.9005 -0.4187 -0.1174
vn 0.6227 -0.4941 -0.6067
vn 0.9179 0.0654 -0.3915
vn 0.8058 -0.5115 -0.2984
vn 0.9337 -0.3439 0.0997
vn 0.7806 0.0673 -0.6214
vn 0.9380 -0.0495 -0.3431
vn 0.9614 -0.1594 0.2243
vn 0.9518 -0.0519 0.3022
vn 0.9228 0.0642 -0.3798
vn 0.7942 0.1430 -0.5906
vn 0.9639 -0.0232 -0.2652
vn 0.5779 -0.1219 -0.8069
vn 0.8989 0.0574 -0.4344
vn 0.6828 -0.1850 -0.7068
vn 0.9270 0.0686 0.3688
vn 0.9047 0.1999 -0.3762
vn 0.7290 0.1357 0.6710
vn 0.3974 0.0768 0.9144
vn 0.8485 0.2708 0.4547
vn 0.1301 0.7428 0.6568
vn 0.1746 0.6081 0.7744
vn -0.2015 0.4404 0.8749
vn -0.7768 0.3714 0.5085
vn -0.2675 0.3643 0.8920
vn -0.6333 0.1899 0.7503
vn -0.4055 -0.3238 0.8548
vn -0.9866 0.0759 0.1444
vn -0.8953 -0.1822 0.4065
vn -0.9702 0.0126 -0.2420
vn -0.4974 -0.2737 -0.8232
vn -0.3708 0.1590 -0.9150
vn -0.8026 0.0588 -0.5936
vn 0.4604 0.1658 -0.8721
vn -0.1051 0.0946 -0.9900
vn -0.8325 -0.0099 -0.5540
vn -0.1293 0.2850 -0.9498
vn -0.1267 -0.1610 -0.9788
vn -0.7288 0.2324 -0.6440
vn -0.9375 0.0407 -0.3457
vn -0.9106 0.0430 -0.4110
vn -0.9795 0.0700 0.1887
vn -0.8466 0.0602 -0.5288
vn -0.9586 0.2750 0.0744
vn -0.8843 0.4290 -0.1844
vn -0.8095 -0.1755 -0.5602
vn -0.8921 0.3684 0.2615
vn -0.5179 0.5951 0.6145
vn -0.9771 0.2104 0.0311
vn -0.3828 -0.3686 -0.8471
vn -0.1414 -0.3544 -0.9243
vn -0.6626 -0.5020 -0.5558
vn 0.1385 -0.5188 -0.8436
vn 0.0904 -0.8442 -0.5283
vn 0.0225 -0.8700 -0.4926
vn -0.4919 -0.7578 -0.4287
vn -0.9090 -0.0626 -0.4121
vn -0.9615 -0.0944 -0.2581
vn -0.9207 0.1355 -0.3661
vn -0.6468 0.4540 0.6128
vn -0.9275 0.3679 -0.0662
vn -0.9452 -0.2287 -0.2329
vn -0.5695 -0.6914 -0.4445
vn -0.5980 -0.5501 -0.5829
vn 0.3821 -0.6591 -0.6478
vn 0.3167 -0.8485 -0.4239
vn 0.4611 -0.2380 0.8548
vn 0.7635 -0.6419 -0.0710
vn 0.9378 -0.3037 0.1682
vn 0.8778 0.0599 0.4753
vn 0.4529 0.1512 0.8786
vn 0.8694 0.2069 0.4488
vn -0.9866 0.1630 0.0080
vn -0.5774 0.3849 0.7200
vn -0.4350 0.6307 0.6426
vn 0.3234 -0.0433 0.9453
vn 0.7828 0.4678 0.4104
vn 0.7571 0.5536 0.3470
vn -0.6525 -0.7560 -0.0525
vn 0.1967 -0.8113 0.5506
vn 0.5520 -0.5317 0.6423
vn -0.5935 -0.7506 0.2904
vn 0.2708 -0.8332 0.4821
vn 0.5135 -0.8443 0.1533
vn -0.5427 -0.7616 0.3541
vn 0.7034 -0.6001 0.3809
vn -0.1447 -0.5682 0.8101
vn 0.0431 -0.9972 -0.0618
vn 0.6348 -0.6047 -0.4810
vn -0.0257 -0.8219 0.5690
vn 0.8042 -0.5525 -0.2192
vn -0.7445 0.4131 0.5244
vn 0.8536 0.3387 -0.3959
vn 0.6939 -0.3802 0.6115
vn 0.1639 -0.7892 -0.5919
vn 0.4771 0.2914 0.8291
vn -0.3693 -0.4999 0.7834
vn -0.1422 0.3458 0.9275
vn -0.9379 -0.0850 0.3363
vn -0.5168 -0.8215 -0.2410
vn -0.0462 -0.5421 0.8390
vn -0.8613 0.2580 -0.4378
vn -0.2899 0.2763 0.9163
vn 0.1198 -0.7838 -0.6094
vn -0.4489 -0.6336 -0.6301
vn -0.5042 -0.8567 0.1091
vn 0.6010 0.0704 0.7961
vn -0.3750 -0.1623 0.9127
vn 0.2328 -0.8979 0.3737
# 135 vertex normals

vt 0.2339 0.2310 0.0000
vt 0.2013 0.2653 0.0000
vt 0.2822 0.2644 0.0000
vt 0.2964 0.2174 0.0000
vt 0.2960 0.1762 0.0000
vt 0.8105 0.5028 0.0000
vt 0.7407 0.4498 0.0000
vt 0.8198 0.4391 0.0000
vt 0.7442 0.4967 0.0000
vt 0.6969 0.4893 0.0000
vt 0.6910 0.4266 0.0000
vt 0.7950 0.5502 0.0000
vt 0.7488 0.5459 0.0000
vt 0.7468 0.5666 0.0000
vt 0.7958 0.5864 0.0000
vt 0.7084 0.5646 0.0000
vt 0.7033 0.5332 0.0000
vt 0.7528 0.5876 0.0000
vt 0.7005 0.5878 0.0000
vt 0.7575 0.6103 0.0000
vt 0.6993 0.6098 0.0000
vt 0.8535 0.5846 0.0000
vt 0.8637 0.5569 0.0000
vt 0.6711 0.5865 0.0000
vt 0.6699 0.5774 0.0000
vt 0.6107 0.6088 0.0000
vt 0.6042 0.5940 0.0000
vt 0.5468 0.6444 0.0000
vt 0.5969 0.6787 0.0000
vt 0.5578 0.5740 0.0000
vt 0.6094 0.5428 0.0000
vt 0.5756 0.7780 0.0000
vt 0.6098 0.7746 0.0000
vt 0.6562 0.7765 0.0000
vt 0.6659 0.6559 0.0000
vt 0.5895 0.8025 0.0000
vt 0.5747 0.8030 0.0000
vt 0.6133 0.8204 0.0000
vt 0.5750 0.8219 0.0000
vt 0.5928 0.8262 0.0000
vt 0.5759 0.8453 0.0000
vt 0.6587 0.8210 0.0000
vt 0.6034 0.8605 0.0000
vt 0.6980 0.8551 0.0000
vt 0.7154 0.8126 0.0000
vt 0.7186 0.8700 0.0000
vt 0.7342 0.8606 0.0000
vt 0.7307 0.8391 0.0000
vt 0.7643 0.8483 0.0000
vt 0.7485 0.8656 0.0000
vt 0.7384 0.8797 0.0000
vt 0.7950 0.8115 0.0000
vt 0.7708 0.6811 0.0000
vt 0.8449 0.7981 0.0000
vt 0.8127 0.6669 0.0000
vt 0.8677 0.6481 0.0000
vt 0.9269 0.5855 0.0000
vt 0.9354 0.6531 0.0000
vt 0.9078 0.7766 0.0000
vt 0.9915 0.6678 0.0000
vt 0.9475 0.7671 0.0000
vt 0.9349 0.8309 0.0000
vt 0.9514 0.8087 0.0000
vt 0.9551 0.8296 0.0000
vt 0.9321 0.8107 0.0000
vt 0.8853 0.8161 0.0000
vt 0.8920 0.8461 0.0000
vt 0.8484 0.8184 0.0000
vt 0.9156 0.8487 0.0000
vt 0.8485 0.8401 0.0000
vt 0.8615 0.8634 0.0000
vt 0.8697 0.8850 0.0000
vt 0.8286 0.8627 0.0000
vt 0.7963 0.8388 0.0000
vt 0.8512 0.8847 0.0000
vt 0.9448 0.8483 0.0000
vt 0.9374 0.8708 0.0000
vt 0.9096 0.8939 0.0000
vt 0.9587 0.8491 0.0000
vt 0.9496 0.8958 0.0000
vt 0.9320 0.8967 0.0000
vt 0.8856 0.8912 0.0000
vt 0.9263 0.4259 0.0000
vt 0.8887 0.4541 0.0000
vt 0.8972 0.3964 0.0000
vt 0.7414 0.3951 0.0000
vt 0.8310 0.3845 0.0000
vt 0.8884 0.5237 0.0000
vt 0.9233 0.5717 0.0000
vt 0.9383 0.4979 0.0000
vt 0.9932 0.5398 0.0000
vt 0.9928 0.5724 0.0000
vt 0.6981 0.6810 0.0000
vt 0.5582 0.5138 0.0000
vt 0.5817 0.5002 0.0000
vt 0.6661 0.5359 0.0000
vt 0.6666 0.4362 0.0000
vt 0.6361 0.4779 0.0000
vt 0.8101 0.8726 0.0000
vt 0.7960 0.8766 0.0000
vt 0.7944 0.8597 0.0000
vt 0.6784 0.8703 0.0000
vt 0.6566 0.8808 0.0000
vt 0.6595 0.8596 0.0000
vt 0.1929 0.4457 0.0000
vt 0.1748 0.4440 0.0000
vt 0.1829 0.4568 0.0000
vt 0.1914 0.4311 0.0000
vt 0.1380 0.4283 0.0000
vt 0.1442 0.4379 0.0000
vt 0.1663 0.4474 0.0000
vt 0.1454 0.4595 0.0000
vt 0.1569 0.4708 0.0000
vt 0.1609 0.3996 0.0000
vt 0.1319 0.3836 0.0000
vt 0.1286 0.4266 0.0000
vt 0.1139 0.4186 0.0000
vt 0.1820 0.2420 0.0000
vt 0.5429 0.6277 0.0000
vt 0.5555 0.6861 0.0000
vt 0.6350 0.8769 0.0000
vt 0.6574 0.8914 0.0000
vt 0.5957 0.8842 0.0000
vt 0.6413 0.8909 0.0000
vt 0.5774 0.8834 0.0000
vt 0.6897 0.8877 0.0000
vt 0.6990 0.8880 0.0000
vt 0.7195 0.8868 0.0000
vt 0.7385 0.8884 0.0000
vt 0.7617 0.8807 0.0000
vt 0.7721 0.8756 0.0000
vt 0.7846 0.8670 0.0000
vt 0.7826 0.8774 0.0000
vt 0.7963 0.8805 0.0000
vt 0.9925 0.5971 0.0000
vt 0.9909 0.7809 0.0000
vt 0.9908 0.8125 0.0000
vt 0.8387 0.8829 0.0000
vt 0.8449 0.8886 0.0000
vt 0.8587 0.8916 0.0000
vt 0.8385 0.8926 0.0000
vt 0.9907 0.8343 0.0000
vt 0.9907 0.8522 0.0000
vt 0.9917 0.8932 0.0000
vt 0.9274 0.3486 0.0000
vt 0.8644 0.3139 0.0000
vt 0.7707 0.3387 0.0000
vt 0.7309 0.3678 0.0000
vt 0.6966 0.4052 0.0000
vt 0.9939 0.4856 0.0000
vt 0.9768 0.4597 0.0000
vt 0.4799 0.5624 0.0000
vt 0.5196 0.5950 0.0000
vt 0.5381 0.5049 0.0000
vt 0.6266 0.4489 0.0000
vt 0.6576 0.4210 0.0000
vt 0.8107 0.8788 0.0000
vt 0.8257 0.8837 0.0000
vt 0.8312 0.8860 0.0000
vt 0.6800 0.8895 0.0000
vt 0.1926 0.4618 0.0000
vt 0.1949 0.4251 0.0000
vt 0.1118 0.4296 0.0000
vt 0.1600 0.3809 0.0000
vt 0.1726 0.3783 0.0000
vt 0.1415 0.3771 0.0000
vt 0.1918 0.4005 0.0000
vt 0.2027 0.4182 0.0000
vt 0.2004 0.4349 0.0000
vt 0.1859 0.3793 0.0000
# 170 texture coords

g leg_right
usemtl Godzilla
s 1
f 1/1/1 2/2/2 3/3/3 
f 4/4/4 1/1/1 3/3/3 
f 1/1/1 4/4/4 5/5/5 
f 6/6/6 7/7/7 8/8/8 
f 6/6/6 9/9/9 7/7/7 
f 10/10/10 7/7/7 9/9/9 
f 10/10/10 11/11/11 7/7/7 
f 12/12/12 9/9/9 6/6/6 
f 12/12/12 13/13/13 9/9/9 
f 12/12/12 14/14/14 13/13/13 
f 14/14/14 12/12/12 15/15/15 
f 13/13/13 14/14/14 16/16/16 
f 13/13/13 16/16/16 17/17/17 
f 17/17/17 9/9/9 13/13/13 
f 17/17/17 10/10/10 9/9/9 
f 16/16/16 14/14/14 18/18/18 
f 15/15/15 18/18/18 14/14/14 
f 16/16/16 18/18/18 19/19/19 
f 19/19/19 18/18/18 20/20/20 
f 15/15/15 20/20/20 18/18/18 
f 19/19/19 20/20/20 21/21/21 
f 12/12/12 22/22/22 15/15/15 
f 12/12/12 23/23/23 22/22/22 
f 24/24/24 19/19/19 21/21/21 
f 19/19/19 25/25/25 16/16/16 
f 19/19/19 24/24/24 25/25/25 
f 26/26/26 25/25/25 24/24/24 
f 26/26/26 27/27/27 25/25/25 
f 27/27/27 26/26/26 28/28/28 
f 29/29/29 28/28/28 26/26/26 
f 30/30/30 31/31/31 27/27/27 
f 27/27/27 31/31/31 25/25/25 
f 32/32/32 29/29/29 33/33/33 
f 34/34/34 33/33/33 29/29/29 
f 34/34/34 29/29/29 35/35/35 
f 35/35/35 26/26/26 24/24/24 
f 35/35/35 29/29/29 26/26/26 
f 36/36/36 32/32/32 33/33/33 
f 36/36/36 37/37/37 32/32/32 
f 33/33/33 38/38/38 36/36/36 
f 38/38/38 33/33/33 34/34/34 
f 36/36/36 39/39/39 37/37/37 
f 38/38/38 40/40/40 36/36/36 
f 40/40/40 39/39/39 36/36/36 
f 40/40/40 41/41/41 39/39/39 
f 42/42/42 38/38/38 34/34/34 
f 42/42/42 43/43/43 38/38/38 
f 43/43/43 40/40/40 38/38/38 
f 43/43/43 41/41/41 40/40/40 
f 44/44/44 42/42/42 45/45/45 
f 45/45/45 42/42/42 34/34/34 
f 46/46/46 44/44/44 47/47/47 
f 47/47/47 44/44/44 48/48/48 
f 44/44/44 45/45/45 48/48/48 
f 49/49/49 47/47/47 48/48/48 
f 49/49/49 50/50/50 47/47/47 
f 51/51/51 46/46/46 47/47/47 
f 52/52/52 49/49/49 48/48/48 
f 52/52/52 48/48/48 45/45/45 
f 53/53/53 52/52/52 45/45/45 
f 54/54/54 52/52/52 53/53/53 
f 54/54/54 53/53/53 55/55/55 
f 56/56/56 54/54/54 55/55/55 
f 22/22/22 56/56/56 55/55/55 
f 57/57/57 56/56/56 22/22/22 
f 57/57/57 58/58/58 56/56/56 
f 58/58/58 59/59/59 56/56/56 
f 59/59/59 54/54/54 56/56/56 
f 60/60/60 58/58/58 57/57/57 
f 61/61/61 58/58/58 60/60/60 
f 59/59/59 58/58/58 61/61/61 
f 62/62/62 63/63/63 64/64/64 
f 62/62/62 65/65/65 63/63/63 
f 65/65/65 61/61/61 63/63/63 
f 65/65/65 59/59/59 61/61/61 
f 65/65/65 66/66/66 59/59/59 
f 65/65/65 67/67/67 66/66/66 
f 67/67/67 68/68/68 66/66/66 
f 69/69/69 67/67/67 65/65/65 
f 62/62/62 69/69/69 65/65/65 
f 67/67/67 70/70/70 68/68/68 
f 71/71/71 70/70/70 67/67/67 
f 71/71/71 67/67/67 72/72/72 
f 70/70/70 71/71/71 73/73/73 
f 70/70/70 73/73/73 74/74/74 
f 72/72/72 75/75/75 71/71/71 
f 71/71/71 75/75/75 73/73/73 
f 64/64/64 76/76/76 62/62/62 
f 76/76/76 69/69/69 62/62/62 
f 77/77/77 69/69/69 76/76/76 
f 77/77/77 78/78/78 69/69/69 
f 78/78/78 67/67/67 69/69/69 
f 79/79/79 77/77/77 76/76/76 
f 76/76/76 64/64/64 79/79/79 
f 79/79/79 80/80/80 77/77/77 
f 81/81/81 77/77/77 80/80/80 
f 81/81/81 78/78/78 77/77/77 
f 78/78/78 82/82/82 67/67/67 
f 82/82/82 72/72/72 67/67/67 
f 83/83/83 84/84/84 85/85/85 
f 86/86/86 87/87/87 7/7/7 
f 11/11/11 86/86/86 7/7/7 
f 8/8/8 85/85/85 84/84/84 
f 8/8/8 87/87/87 85/85/85 
f 87/87/87 8/8/8 7/7/7 
f 84/84/84 6/6/6 8/8/8 
f 84/84/84 88/88/88 6/6/6 
f 6/6/6 88/88/88 23/23/23 
f 6/6/6 23/23/23 12/12/12 
f 89/89/89 23/23/23 88/88/88 
f 90/90/90 89/89/89 88/88/88 
f 89/89/89 90/90/90 91/91/91 
f 89/89/89 91/91/91 92/92/92 
f 89/89/89 57/57/57 23/23/23 
f 57/57/57 89/89/89 92/92/92 
f 57/57/57 22/22/22 23/23/23 
f 84/84/84 90/90/90 88/88/88 
f 83/83/83 90/90/90 84/84/84 
f 22/22/22 55/55/55 15/15/15 
f 55/55/55 20/20/20 15/15/15 
f 55/55/55 53/53/53 20/20/20 
f 53/53/53 21/21/21 20/20/20 
f 53/53/53 93/93/93 21/21/21 
f 21/21/21 93/93/93 35/35/35 
f 21/21/21 35/35/35 24/24/24 
f 93/93/93 34/34/34 35/35/35 
f 93/93/93 45/45/45 34/34/34 
f 53/53/53 45/45/45 93/93/93 
f 94/94/94 31/31/31 30/30/30 
f 94/94/94 95/95/95 31/31/31 
f 95/95/95 96/96/96 31/31/31 
f 31/31/31 96/96/96 25/25/25 
f 16/16/16 25/25/25 96/96/96 
f 16/16/16 96/96/96 17/17/17 
f 96/96/96 10/10/10 17/17/17 
f 96/96/96 97/97/97 10/10/10 
f 97/97/97 96/96/96 98/98/98 
f 96/96/96 95/95/95 98/98/98 
f 10/10/10 97/97/97 11/11/11 
f 99/99/99 100/100/100 101/101/101 
f 49/49/49 74/74/74 101/101/101 
f 49/49/49 52/52/52 74/74/74 
f 52/52/52 70/70/70 74/74/74 
f 70/70/70 52/52/52 68/68/68 
f 68/68/68 52/52/52 54/54/54 
f 68/68/68 54/54/54 66/66/66 
f 59/59/59 66/66/66 54/54/54 
f 102/102/102 103/103/103 104/104/104 
f 105/105/105 106/106/106 107/107/107 
f 105/105/105 108/108/108 106/106/106 
f 108/108/108 109/109/109 106/106/106 
f 106/106/106 109/109/109 110/110/110 
f 106/106/106 110/110/110 111/111/111 
f 112/112/112 111/111/111 110/110/110 
f 112/112/112 113/113/113 111/111/111 
f 109/109/109 114/114/114 115/115/115 
f 109/109/109 115/115/115 116/116/116 
f 116/116/116 115/115/115 117/117/117 
f 1/1/1 118/118/118 2/2/2 
f 27/27/27 28/28/28 92/119/92 
f 29/29/29 60/120/60 28/28/28 
f 30/30/30 27/27/27 92/119/92 
f 29/29/29 32/32/32 60/120/60 
f 42/42/42 104/104/104 43/43/43 
f 44/44/44 104/104/104 42/42/42 
f 43/43/43 104/104/104 119/121/119 
f 103/103/103 119/121/119 104/104/104 
f 44/44/44 102/102/102 104/104/104 
f 120/122/120 119/121/119 103/103/103 
f 115/123/115 41/41/41 43/43/43 
f 115/123/115 43/43/43 119/121/119 
f 115/123/115 119/121/119 117/124/117 
f 120/122/120 117/124/117 119/121/119 
f 41/41/41 115/123/115 121/125/121 
f 109/126/109 102/102/102 44/44/44 
f 109/126/109 44/44/44 110/127/110 
f 46/46/46 110/127/110 44/44/44 
f 50/50/50 51/51/51 47/47/47 
f 51/51/51 112/128/112 46/46/46 
f 46/46/46 112/128/112 110/127/110 
f 113/129/113 112/128/112 51/51/51 
f 111/130/111 50/50/50 49/49/49 
f 111/130/111 51/51/51 50/50/50 
f 49/49/49 106/131/106 111/130/111 
f 122/132/122 106/131/106 49/49/49 
f 107/133/107 106/131/106 122/132/122 
f 100/100/100 107/133/107 122/132/122 
f 100/100/100 122/132/122 101/101/101 
f 122/132/122 49/49/49 101/101/101 
f 100/100/100 123/134/123 107/133/107 
f 111/130/111 113/129/113 51/51/51 
f 60/60/60 57/57/57 28/135/28 
f 61/61/61 60/60/60 32/136/32 
f 61/61/61 32/136/32 37/137/37 
f 61/61/61 37/137/37 63/63/63 
f 37/137/37 64/64/64 63/63/63 
f 74/74/74 73/73/73 101/101/101 
f 75/75/75 124/138/124 73/73/73 
f 125/139/125 124/138/124 75/75/75 
f 126/140/126 125/139/125 75/75/75 
f 126/140/126 75/75/75 72/72/72 
f 125/139/125 126/140/126 127/141/127 
f 124/138/124 125/139/125 127/141/127 
f 39/142/39 79/79/79 64/64/64 
f 37/137/37 39/142/39 64/64/64 
f 39/142/39 41/143/41 79/79/79 
f 121/144/121 79/79/79 41/143/41 
f 121/144/121 80/80/80 79/79/79 
f 82/82/82 126/140/126 72/72/72 
f 128/145/128 83/83/83 85/85/85 
f 85/85/85 5/146/5 128/145/128 
f 85/85/85 87/87/87 5/146/5 
f 87/87/87 1/147/1 5/146/5 
f 1/147/1 87/87/87 86/86/86 
f 118/148/118 1/147/1 86/86/86 
f 118/148/118 86/86/86 129/149/129 
f 11/11/11 129/149/129 86/86/86 
f 90/90/90 130/150/130 91/91/91 
f 90/90/90 131/151/131 130/150/130 
f 57/57/57 92/92/92 28/135/28 
f 131/151/131 90/90/90 83/83/83 
f 130/152/130 94/94/94 91/153/91 
f 130/152/130 132/154/132 94/94/94 
f 94/94/94 30/30/30 91/153/91 
f 30/30/30 92/119/92 91/153/91 
f 97/97/97 98/98/98 133/155/133 
f 97/97/97 133/155/133 134/156/134 
f 97/97/97 134/156/134 129/149/129 
f 11/11/11 97/97/97 129/149/129 
f 100/100/100 99/99/99 105/157/105 
f 123/134/123 100/100/100 105/157/105 
f 99/99/99 108/158/108 105/157/105 
f 99/99/99 73/73/73 108/158/108 
f 135/159/135 108/158/108 73/73/73 
f 73/73/73 99/99/99 101/101/101 
f 127/141/127 135/159/135 124/138/124 
f 135/159/135 73/73/73 124/138/124 
f 102/102/102 120/122/120 103/103/103 
f 116/160/116 120/122/120 102/102/102 
f 109/126/109 116/160/116 102/102/102 
f 105/105/105 107/107/107 123/161/123 
f 135/162/135 109/109/109 108/108/108 
f 135/162/135 114/114/114 109/109/109 
f 120/163/120 116/116/116 117/117/117 
f 115/115/115 114/114/114 80/164/80 
f 114/114/114 81/165/81 80/164/80 
f 115/115/115 80/164/80 121/166/121 
f 82/167/82 114/114/114 135/162/135 
f 82/167/82 81/165/81 114/114/114 
f 126/168/126 82/167/82 135/162/135 
f 126/168/126 135/162/135 127/169/127 
f 81/165/81 82/167/82 78/170/78 
# 0 polygons - 252 triangles

