# 3ds Max Wavefront OBJ Exporter v0.97b - (c)2007 guruware
# File Created: 23.02.2016 18:10:33

mtllib godzillaRightArm.mtl

#
# object Arm_Right
#

v  -61.8064 130.9353 32.0693
v  -65.5471 133.4279 30.3867
v  -61.9209 134.0455 30.1677
v  -65.2835 130.7486 33.6330
v  -68.0914 133.0781 31.3178
v  -64.1993 126.7865 35.6552
v  -67.0051 128.2176 36.6371
v  -68.9663 131.5840 35.0002
v  -71.8246 131.7935 37.7080
v  -68.7552 126.3351 37.9008
v  -67.9651 127.1426 39.0749
v  -67.8549 126.4986 37.5250
v  -69.1567 124.1864 37.5720
v  -69.9210 125.2074 38.2502
v  -70.0148 125.4070 38.8733
v  -70.5992 133.2683 32.8937
v  -72.2108 134.3106 30.3986
v  -71.3667 132.1699 35.2510
v  -72.7514 132.9842 36.5304
v  -72.8922 133.8914 34.0865
v  -73.6387 133.8492 34.1880
v  -73.7190 132.8867 36.2907
v  -72.9588 133.8493 37.5771
v  -76.6505 133.2127 37.2390
v  -76.9510 132.4289 36.2081
v  -79.5131 132.0395 35.2830
v  -76.8930 133.2544 35.0144
v  -72.6543 135.2703 34.6892
v  -73.3953 134.1271 30.4154
v  -71.7277 135.5409 30.1604
v  -75.0210 134.1373 32.0101
v  -73.3510 133.8258 31.9945
v  -75.0811 134.4117 30.5157
v  -74.7671 134.9662 32.2434
v  -72.1658 135.3757 33.0690
v  -76.9032 133.7048 31.4241
v  -56.1362 129.9103 35.5480
v  -59.6222 126.9351 36.9919
v  -61.5931 128.0999 33.7759
v  -56.5568 130.6172 38.9667
v  -55.4332 131.3356 39.1010
v  -62.7853 129.3232 40.6724
v  -61.6880 125.7378 38.0496
v  -57.4735 136.2055 39.3240
v  -60.2915 135.2569 40.1554
v  -60.1453 138.1048 34.5069
v  -57.8924 138.8799 34.1347
v  -59.4691 136.5933 30.7263
v  -67.7461 137.7563 32.7285
v  -68.7417 137.2138 37.1411
v  -67.9693 134.1993 41.5452
v  -69.0578 136.2193 34.7147
v  -70.1292 136.6318 37.1550
v  -69.4167 134.5954 39.0430
v  -69.5025 133.4185 41.7890
v  -68.1149 131.0039 41.3336
v  -66.9151 135.1808 30.3847
v  -68.9242 137.1959 32.2375
v  -72.7507 131.1644 42.0148
v  -72.9650 133.1235 41.3487
v  -74.1644 132.6707 41.0585
v  -76.9827 130.6778 41.3191
v  -77.1364 131.9113 40.4610
v  -78.9989 130.8084 39.8334
v  -77.2274 131.5175 38.6336
v  -80.5096 129.0647 38.9179
v  -72.3845 136.2483 36.9408
v  -74.3417 135.8938 36.6086
v  -76.4257 134.3502 34.8564
v  -76.4601 135.0717 36.4014
v  -59.3466 130.1815 32.5553
v  -56.3757 132.5271 30.5185
v  -47.7184 129.5741 33.2803
v  -46.5511 131.1943 28.2293
v  -40.7439 129.2154 33.2864
v  -40.0193 131.4677 38.6159
v  -39.8853 129.1847 34.1011
v  -25.6058 127.6819 37.9947
v  -36.1046 128.6847 33.5799
v  -27.9639 128.2163 33.1219
v  -37.4837 130.8532 39.7478
v  -27.8595 132.8623 42.6528
v  -36.8364 137.9433 39.9672
v  -40.0395 134.9100 41.0659
v  -40.3112 139.7325 38.9000
v  -37.5891 142.4205 32.6884
v  -41.6006 142.2178 33.6978
v  -51.7040 136.9885 39.3713
v  -49.5487 132.2641 39.6368
v  -51.1105 140.2987 34.6182
v  -39.4835 139.8168 28.0589
v  -38.4549 139.2805 27.3508
v  -34.0402 140.3483 25.9852
v  -36.5750 133.8087 26.9505
v  -39.2114 132.5699 28.8542
v  -42.8451 135.0119 27.0187
v  -43.6236 139.1930 27.7874
v  -41.5019 131.4411 28.6832
v  -50.8714 137.7402 28.6465
v  -25.4590 143.2410 28.8121
v  -29.8139 139.9342 39.9777
v  -69.9287 129.3816 40.4555
v  -72.6872 130.9827 38.5215
v  -72.3420 129.6511 40.4698
v  -73.4894 130.4599 38.3214
v  -73.0400 132.5994 38.8152
v  -73.3756 129.3254 40.0350
v  -77.0385 130.4922 38.8132
v  -76.8110 129.4915 40.1065
v  -72.8228 132.9754 38.0881
v  -66.7224 124.1522 38.4319
v  -66.3166 125.1427 36.9250
v  -65.5585 124.4650 38.4888
v  -66.3029 125.7623 40.0891
v  -69.1904 124.8084 39.7417
v  -70.6298 123.7787 38.6456
v  -68.6226 123.6065 38.5069
v  -72.3200 124.3582 38.3970
v  -67.9290 128.4937 39.6718
v  -68.8775 126.6269 39.0724
v  -75.1299 134.9656 30.6472
v  -75.3247 135.3194 31.5373
v  -72.7714 136.1761 31.5257
v  -60.5261 133.9376 30.6631
v  -72.2422 133.9639 32.2020
v  -72.4346 135.0031 33.6719
v  -71.4320 136.7336 31.6944
v  -29.8978 134.1030 26.2928
v  -26.1447 138.4789 24.1478
# 129 vertices

vn -0.0759 -0.5463 -0.8341
vn -0.1341 -0.4260 -0.8947
vn 0.1158 -0.1862 -0.9757
vn -0.3307 -0.6622 -0.6724
vn -0.1864 -0.7070 -0.6822
vn -0.1247 -0.6732 -0.7289
vn -0.6442 -0.4155 -0.6422
vn -0.3991 -0.7651 -0.5053
vn -0.5263 -0.6967 -0.4874
vn -0.5023 0.5815 -0.6400
vn -0.8544 0.3695 0.3653
vn -0.6252 0.2168 -0.7498
vn -0.1768 -0.4169 -0.8916
vn -0.4646 0.5841 -0.6655
vn -0.6033 0.7393 0.2991
vn -0.3736 -0.8637 -0.3383
vn -0.0054 -0.6558 -0.7549
vn -0.4277 -0.8432 -0.3257
vn -0.5048 -0.8629 -0.0225
vn -0.4935 -0.3806 -0.7820
vn -0.0774 -0.3578 -0.9306
vn 0.1072 -0.9926 0.0573
vn -0.5036 0.0254 0.8636
vn -0.2744 -0.2157 0.9371
vn 0.1040 -0.9898 0.0975
vn -0.8651 -0.4526 -0.2163
vn 0.0419 -0.5085 -0.8600
vn -0.3238 0.8090 -0.4905
vn -0.0683 -0.6787 -0.7312
vn -0.0688 0.3851 -0.9203
vn -0.1149 -0.7699 0.6278
vn -0.0847 -0.9169 0.3901
vn -0.1979 -0.4391 -0.8764
vn -0.3128 0.2878 0.9052
vn -0.5900 0.6429 0.4885
vn -0.8806 -0.4735 0.0197
vn 0.3096 -0.9442 -0.1121
vn 0.4946 -0.8678 0.0487
vn 0.0401 -0.7184 -0.6945
vn 0.4185 -0.5333 0.7351
vn 0.1082 -0.5352 0.8378
vn 0.2243 -0.2716 0.9359
vn 0.4717 -0.8596 0.1964
vn -0.0261 0.5495 0.8351
vn 0.1266 0.4821 0.8669
vn -0.1356 0.9889 0.0616
vn -0.2352 0.9716 -0.0265
vn -0.1003 0.5412 -0.8349
vn -0.2442 0.9284 -0.2801
vn -0.3046 0.9081 0.2874
vn -0.0897 0.4990 0.8620
vn -0.5470 0.8364 -0.0355
vn -0.2872 0.9121 0.2925
vn -0.4744 0.7029 0.5299
vn -0.0474 0.4622 0.8855
vn 0.0839 -0.3101 0.9470
vn -0.0710 0.2326 -0.9700
vn -0.2316 0.9410 -0.2467
vn -0.0946 -0.2241 0.9700
vn -0.3528 0.7675 0.5352
vn -0.3259 0.8273 0.4575
vn -0.3058 -0.1274 0.9435
vn -0.4164 0.8409 0.3456
vn -0.7343 0.6119 0.2940
vn -0.2904 0.5641 -0.7729
vn -0.8515 -0.4615 -0.2489
vn -0.2755 0.8969 0.3459
vn -0.3020 0.8905 0.3403
vn -0.3775 0.5082 -0.7741
vn -0.4953 0.8083 0.3184
vn 0.1794 -0.6738 -0.7168
vn -0.1286 -0.5182 -0.8455
vn -0.0770 -0.9970 -0.0088
vn -0.1304 -0.6251 -0.7696
vn 0.1100 -0.9868 -0.1190
vn -0.2364 -0.7648 0.5993
vn -0.1853 -0.9818 0.0425
vn -0.1129 -0.9153 0.3867
vn -0.1402 -0.9702 -0.1977
vn -0.0630 -0.9467 -0.3160
vn -0.2330 -0.6346 0.7369
vn -0.1468 -0.3057 0.9408
vn -0.0497 0.4857 0.8727
vn 0.0386 -0.0545 0.9978
vn 0.0209 0.7263 0.6871
vn -0.0910 0.9958 0.0026
vn -0.1134 0.9929 0.0346
vn -0.1414 0.4813 0.8651
vn -0.0481 -0.5424 0.8387
vn -0.2211 0.9706 0.0951
vn -0.0856 0.6214 -0.7788
vn -0.4327 0.3390 -0.8354
vn -0.2380 0.4973 -0.8343
vn -0.2496 -0.4249 -0.8702
vn 0.0507 -0.5869 -0.8081
vn 0.0814 -0.0920 -0.9924
vn -0.1311 0.5972 -0.7913
vn 0.2268 -0.6706 -0.7063
vn -0.2640 0.4855 -0.8334
vn -0.0412 0.9488 -0.3133
vn -0.0983 0.7135 0.6937
vn -0.1636 -0.9311 0.3260
vn 0.0370 -0.4595 -0.8874
vn 0.0371 -0.9838 0.1753
vn 0.1637 -0.4141 -0.8954
vn -0.5899 0.6959 -0.4095
vn 0.1300 -0.9915 0.0084
vn 0.0242 -0.4893 -0.8718
vn -0.0013 -0.9926 0.1211
vn -0.9794 0.1537 0.1313
vn 0.2368 -0.9675 0.0892
vn -0.0389 -0.5766 -0.8161
vn 0.3068 -0.9431 0.1283
vn 0.0141 -0.3633 0.9316
vn -0.1980 -0.1879 0.9620
vn -0.2635 -0.9424 0.2061
vn 0.1354 -0.9864 0.0928
vn -0.9944 -0.0636 -0.0842
vn -0.5871 -0.5913 0.5529
vn -0.5597 0.7314 0.3897
vn -0.3822 0.5382 -0.7512
vn -0.5435 0.8273 0.1422
vn -0.3351 0.9420 -0.0180
vn 0.1234 -0.2662 -0.9560
vn -0.3100 -0.9138 0.2623
vn -0.8450 0.4504 -0.2881
vn -0.2525 0.9672 -0.0279
vn -0.1325 -0.4479 -0.8842
vn -0.1365 0.3385 -0.9310
# 129 vertex normals

vt 0.6246 0.3934 0.0000
vt 0.6199 0.4213 0.0000
vt 0.6362 0.4081 0.0000
vt 0.6058 0.4018 0.0000
vt 0.6046 0.4299 0.0000
vt 0.6005 0.3786 0.0000
vt 0.5859 0.3868 0.0000
vt 0.5841 0.4123 0.0000
vt 0.5619 0.4112 0.0000
vt 0.5760 0.3683 0.0000
vt 0.5742 0.3762 0.0000
vt 0.5812 0.3714 0.0000
vt 0.5750 0.3570 0.0000
vt 0.5696 0.3599 0.0000
vt 0.5662 0.3624 0.0000
vt 0.5846 0.4313 0.0000
vt 0.5952 0.4508 0.0000
vt 0.5718 0.4210 0.0000
vt 0.5577 0.4231 0.0000
vt 0.5647 0.4357 0.0000
vt 0.5605 0.4379 0.0000
vt 0.5532 0.4267 0.0000
vt 0.5564 0.4174 0.0000
vt 0.5392 0.4308 0.0000
vt 0.5400 0.4368 0.0000
vt 0.5287 0.4436 0.0000
vt 0.5441 0.4432 0.0000
vt 0.5687 0.4427 0.0000
vt 0.5904 0.4548 0.0000
vt 0.6013 0.4574 0.0000
vt 0.5768 0.4590 0.0000
vt 0.5824 0.4504 0.0000
vt 0.5834 0.4637 0.0000
vt 0.5728 0.4547 0.0000
vt 0.5774 0.4401 0.0000
vt 0.5735 0.4721 0.0000
vt 0.8011 0.1712 0.0000
vt 0.8266 0.1700 0.0000
vt 0.8242 0.1450 0.0000
vt 0.8110 0.1955 0.0000
vt 0.8032 0.1979 0.0000
vt 0.8461 0.1906 0.0000
vt 0.8377 0.1674 0.0000
vt 0.8165 0.2252 0.0000
vt 0.8337 0.2214 0.0000
vt 0.8313 0.2515 0.0000
vt 0.8156 0.2575 0.0000
vt 0.8253 0.2771 0.0000
vt 0.8710 0.2607 0.0000
vt 0.8754 0.2406 0.0000
vt 0.8741 0.2163 0.0000
vt 0.8801 0.2520 0.0000
vt 0.8830 0.2390 0.0000
vt 0.8823 0.2258 0.0000
vt 0.8818 0.2128 0.0000
vt 0.8742 0.2009 0.0000
vt 0.8694 0.2818 0.0000
vt 0.8783 0.2627 0.0000
vt 0.8991 0.1971 0.0000
vt 0.8999 0.2043 0.0000
vt 0.9049 0.2025 0.0000
vt 0.9152 0.1940 0.0000
vt 0.9160 0.1990 0.0000
vt 0.9244 0.1953 0.0000
vt 0.9219 0.2040 0.0000
vt 0.9326 0.1912 0.0000
vt 0.9018 0.2378 0.0000
vt 0.9068 0.2379 0.0000
vt 0.9244 0.2442 0.0000
vt 0.9184 0.2380 0.0000
vt 0.8084 0.1410 0.0000
vt 0.7971 0.1380 0.0000
vt 0.7624 0.1609 0.0000
vt 0.7613 0.1295 0.0000
vt 0.7346 0.1555 0.0000
vt 0.7260 0.1878 0.0000
vt 0.7291 0.1571 0.0000
vt 0.6555 0.1524 0.0000
vt 0.7077 0.1495 0.0000
vt 0.6683 0.1309 0.0000
vt 0.7122 0.1875 0.0000
vt 0.6459 0.1984 0.0000
vt 0.6990 0.2304 0.0000
vt 0.7255 0.2147 0.0000
vt 0.7199 0.2448 0.0000
vt 0.6920 0.2797 0.0000
vt 0.7213 0.2755 0.0000
vt 0.7796 0.2313 0.0000
vt 0.7704 0.2002 0.0000
vt 0.7764 0.2642 0.0000
vt 0.7172 0.3062 0.0000
vt 0.6996 0.3125 0.0000
vt 0.6793 0.3213 0.0000
vt 0.7023 0.3478 0.0000
vt 0.7284 0.3406 0.0000
vt 0.7418 0.3189 0.0000
vt 0.7358 0.3026 0.0000
vt 0.7451 0.3363 0.0000
vt 0.7807 0.2979 0.0000
vt 0.6298 0.3076 0.0000
vt 0.6508 0.2445 0.0000
vt 0.5583 0.3937 0.0000
vt 0.5468 0.4083 0.0000
vt 0.5437 0.3986 0.0000
vt 0.5414 0.4080 0.0000
vt 0.5504 0.4155 0.0000
vt 0.5387 0.3995 0.0000
vt 0.5289 0.4109 0.0000
vt 0.5270 0.4048 0.0000
vt 0.5583 0.4147 0.0000
vt 0.8666 0.1619 0.0000
vt 0.8604 0.1541 0.0000
vt 0.8610 0.1635 0.0000
vt 0.8653 0.1715 0.0000
vt 0.8799 0.1672 0.0000
vt 0.8849 0.1601 0.0000
vt 0.8774 0.1615 0.0000
vt 0.8935 0.1592 0.0000
vt 0.8732 0.1871 0.0000
vt 0.8795 0.1754 0.0000
vt 0.9133 0.2803 0.0000
vt 0.9144 0.2753 0.0000
vt 0.9023 0.2712 0.0000
vt 0.6274 0.3808 0.0000
vt 0.6432 0.3992 0.0000
vt 0.6366 0.3678 0.0000
vt 0.6211 0.3816 0.0000
vt 0.6195 0.4352 0.0000
vt 0.5901 0.3670 0.0000
vt 0.5706 0.3713 0.0000
vt 0.5578 0.3488 0.0000
vt 0.5828 0.4452 0.0000
vt 0.5755 0.4380 0.0000
vt 0.5488 0.4469 0.0000
vt 0.5856 0.4663 0.0000
vt 0.8412 0.1492 0.0000
vt 0.8414 0.2885 0.0000
vt 0.8313 0.2896 0.0000
vt 0.8155 0.3139 0.0000
vt 0.8968 0.2801 0.0000
vt 0.8978 0.2698 0.0000
vt 0.9066 0.2145 0.0000
vt 0.8854 0.1903 0.0000
vt 0.9009 0.1879 0.0000
vt 0.9061 0.1864 0.0000
vt 0.9170 0.1885 0.0000
vt 0.9037 0.2627 0.0000
vt 0.9041 0.2559 0.0000
vt 0.9055 0.2473 0.0000
vt 0.9073 0.2280 0.0000
vt 0.9029 0.2238 0.0000
vt 0.9253 0.2323 0.0000
vt 0.9388 0.2386 0.0000
vt 0.7473 0.1260 0.0000
vt 0.7380 0.1228 0.0000
vt 0.7222 0.1181 0.0000
vt 0.6736 0.3568 0.0000
vt 0.6406 0.3334 0.0000
vt 0.7729 0.3279 0.0000
vt 0.5692 0.3848 0.0000
vt 0.5302 0.4148 0.0000
vt 0.5073 0.4140 0.0000
vt 0.8787 0.1556 0.0000
vt 0.8857 0.1690 0.0000
vt 0.8755 0.1804 0.0000
vt 0.9146 0.2693 0.0000
vt 0.9266 0.2783 0.0000
vt 0.6742 0.1049 0.0000
# 168 texture coords

g Arm_Right
usemtl Godzilla
s 1
f 1/1/1 2/2/2 3/3/3 
f 4/4/4 2/2/2 1/1/1 
f 4/4/4 5/5/5 2/2/2 
f 6/6/6 7/7/7 4/4/4 
f 7/7/7 8/8/8 4/4/4 
f 8/8/8 5/5/5 4/4/4 
f 8/8/8 7/7/7 9/9/9 
f 10/10/10 11/11/11 12/12/12 
f 11/11/11 7/7/7 12/12/12 
f 13/13/13 14/14/14 10/10/10 
f 10/10/10 14/14/14 15/15/15 
f 8/8/8 16/16/16 5/5/5 
f 16/16/16 17/17/17 5/5/5 
f 9/9/9 18/18/18 8/8/8 
f 18/18/18 16/16/16 8/8/8 
f 18/18/18 9/9/9 19/19/19 
f 18/18/18 20/20/20 16/16/16 
f 19/19/19 20/20/20 18/18/18 
f 19/19/19 21/21/21 20/20/20 
f 19/19/19 22/22/22 21/21/21 
f 23/23/23 22/22/22 19/19/19 
f 24/24/24 22/22/22 23/23/23 
f 25/25/25 22/22/22 24/24/24 
f 25/25/25 24/24/24 26/26/26 
f 27/27/27 25/25/25 26/26/26 
f 22/22/22 27/27/27 21/21/21 
f 22/22/22 25/25/25 27/27/27 
f 21/21/21 28/28/28 20/20/20 
f 29/29/29 30/30/30 17/17/17 
f 31/31/31 29/29/29 32/32/32 
f 31/31/31 33/33/33 29/29/29 
f 34/34/34 32/32/32 35/35/35 
f 34/34/34 31/31/31 32/32/32 
f 36/36/36 31/31/31 34/34/34 
f 37/37/37 38/38/38 39/39/39 
f 40/40/40 38/38/38 37/37/37 
f 40/40/40 37/37/37 41/41/41 
f 38/38/38 40/40/40 42/42/42 
f 43/43/43 38/38/38 42/42/42 
f 44/44/44 40/40/40 41/41/41 
f 44/44/44 45/45/45 40/40/40 
f 45/45/45 42/42/42 40/40/40 
f 44/44/44 46/46/46 45/45/45 
f 44/44/44 47/47/47 46/46/46 
f 48/48/48 46/46/46 47/47/47 
f 49/49/49 46/46/46 48/48/48 
f 50/50/50 46/46/46 49/49/49 
f 50/50/50 45/45/45 46/46/46 
f 50/50/50 51/51/51 45/45/45 
f 51/51/51 42/42/42 45/45/45 
f 52/52/52 50/50/50 49/49/49 
f 53/53/53 50/50/50 52/52/52 
f 54/54/54 50/50/50 53/53/53 
f 54/54/54 51/51/51 50/50/50 
f 55/55/55 51/51/51 54/54/54 
f 42/42/42 51/51/51 56/56/56 
f 55/55/55 56/56/56 51/51/51 
f 48/48/48 57/57/57 49/49/49 
f 58/58/58 52/52/52 49/49/49 
f 57/57/57 58/58/58 49/49/49 
f 59/59/59 56/56/56 55/55/55 
f 59/59/59 55/55/55 60/60/60 
f 55/55/55 54/54/54 60/60/60 
f 61/61/61 59/59/59 60/60/60 
f 61/61/61 62/62/62 59/59/59 
f 61/61/61 63/63/63 62/62/62 
f 64/64/64 62/62/62 63/63/63 
f 61/61/61 65/65/65 63/63/63 
f 65/65/65 64/64/64 63/63/63 
f 64/64/64 65/65/65 66/66/66 
f 67/67/67 54/54/54 53/53/53 
f 68/68/68 69/69/69 70/70/70 
f 37/37/37 71/71/71 72/72/72 
f 73/73/73 37/37/37 72/72/72 
f 73/73/73 72/72/72 74/74/74 
f 73/73/73 74/74/74 75/75/75 
f 76/76/76 73/73/73 75/75/75 
f 76/76/76 75/75/75 77/77/77 
f 78/78/78 79/79/79 80/80/80 
f 79/79/79 78/78/78 81/81/81 
f 81/81/81 77/77/77 79/79/79 
f 81/81/81 76/76/76 77/77/77 
f 78/78/78 82/82/82 81/81/81 
f 81/81/81 82/82/82 83/83/83 
f 81/81/81 84/84/84 76/76/76 
f 81/81/81 83/83/83 84/84/84 
f 84/84/84 83/83/83 85/85/85 
f 85/85/85 83/83/83 86/86/86 
f 85/85/85 86/86/86 87/87/87 
f 88/88/88 84/84/84 85/85/85 
f 84/84/84 88/88/88 89/89/89 
f 84/84/84 89/89/89 76/76/76 
f 76/76/76 89/89/89 73/73/73 
f 89/89/89 37/37/37 73/73/73 
f 89/89/89 41/41/41 37/37/37 
f 41/41/41 89/89/89 88/88/88 
f 41/41/41 88/88/88 44/44/44 
f 47/47/47 44/44/44 88/88/88 
f 47/47/47 88/88/88 90/90/90 
f 90/90/90 85/85/85 87/87/87 
f 90/90/90 88/88/88 85/85/85 
f 87/87/87 86/86/86 91/91/91 
f 86/86/86 92/92/92 91/91/91 
f 86/86/86 93/93/93 92/92/92 
f 93/93/93 94/94/94 92/92/92 
f 94/94/94 91/91/91 92/92/92 
f 91/91/91 94/94/94 95/95/95 
f 96/96/96 91/91/91 95/95/95 
f 91/91/91 96/96/96 97/97/97 
f 96/96/96 95/95/95 98/98/98 
f 90/90/90 97/97/97 99/99/99 
f 97/97/97 96/96/96 99/99/99 
f 48/48/48 90/90/90 99/99/99 
f 97/97/97 90/90/90 87/87/87 
f 91/91/91 97/97/97 87/87/87 
f 100/100/100 93/93/93 86/86/86 
f 86/86/86 101/101/101 100/100/100 
f 101/101/101 86/86/86 83/83/83 
f 101/101/101 83/83/83 82/82/82 
f 102/102/102 103/103/103 9/9/9 
f 102/102/102 104/104/104 103/103/103 
f 104/104/104 105/105/105 103/103/103 
f 105/105/105 106/106/106 103/103/103 
f 104/104/104 107/107/107 105/105/105 
f 107/107/107 108/108/108 105/105/105 
f 107/107/107 109/109/109 108/108/108 
f 110/110/110 9/9/9 103/103/103 
f 111/111/111 112/112/112 113/113/113 
f 114/114/114 111/111/111 113/113/113 
f 43/43/43 114/114/114 113/113/113 
f 115/115/115 116/116/116 117/117/117 
f 111/111/111 115/115/115 117/117/117 
f 111/111/111 114/114/114 115/115/115 
f 118/118/118 116/116/116 115/115/115 
f 42/42/42 114/114/114 43/43/43 
f 119/119/119 114/114/114 42/42/42 
f 115/115/115 114/114/114 120/120/120 
f 56/56/56 119/119/119 42/42/42 
f 121/121/121 122/122/122 123/123/123 
f 48/48/48 47/47/47 90/90/90 
f 71/71/71 37/37/37 39/39/39 
f 71/124/71 124/125/124 72/126/72 
f 124/125/124 71/124/71 1/1/1 
f 1/1/1 71/124/71 39/127/39 
f 3/3/3 124/125/124 1/1/1 
f 39/127/39 4/4/4 1/1/1 
f 6/6/6 4/4/4 39/127/39 
f 57/128/57 3/3/3 2/2/2 
f 5/5/5 57/128/57 2/2/2 
f 112/129/112 7/7/7 6/6/6 
f 112/129/112 12/12/12 7/7/7 
f 112/129/112 10/10/10 12/12/12 
f 10/10/10 120/130/120 11/11/11 
f 13/13/13 10/10/10 112/129/112 
f 118/131/118 14/14/14 13/13/13 
f 10/10/10 15/15/15 120/130/120 
f 14/14/14 118/131/118 15/15/15 
f 17/17/17 57/128/57 5/5/5 
f 16/16/16 125/132/125 17/17/17 
f 9/9/9 110/110/110 19/19/19 
f 23/23/23 19/19/19 110/110/110 
f 126/133/126 16/16/16 20/20/20 
f 126/133/126 125/132/125 16/16/16 
f 20/20/20 28/28/28 126/133/126 
f 21/21/21 69/134/69 28/28/28 
f 69/134/69 27/27/27 26/26/26 
f 69/134/69 21/21/21 27/27/27 
f 35/35/35 32/32/32 125/132/125 
f 29/29/29 125/132/125 32/32/32 
f 29/29/29 17/17/17 125/132/125 
f 29/29/29 121/135/121 30/30/30 
f 29/29/29 33/33/33 121/135/121 
f 33/33/33 36/36/36 121/135/121 
f 33/33/33 31/31/31 36/36/36 
f 17/17/17 30/30/30 57/128/57 
f 6/136/6 39/39/39 38/38/38 
f 6/136/6 38/38/38 43/43/43 
f 57/57/57 48/48/48 3/137/3 
f 3/137/3 48/48/48 124/138/124 
f 72/139/72 124/138/124 48/48/48 
f 58/58/58 57/57/57 30/140/30 
f 58/58/58 30/140/30 127/141/127 
f 54/54/54 106/142/106 60/60/60 
f 106/142/106 61/61/61 60/60/60 
f 59/59/59 102/143/102 56/56/56 
f 59/59/59 104/144/104 102/143/102 
f 59/59/59 107/145/107 104/144/104 
f 107/145/107 59/59/59 62/62/62 
f 107/145/107 62/62/62 109/146/109 
f 62/62/62 66/66/66 109/146/109 
f 62/62/62 64/64/64 66/66/66 
f 61/61/61 106/142/106 65/65/65 
f 30/140/30 123/123/123 127/141/127 
f 123/123/123 35/147/35 127/141/127 
f 35/147/35 58/58/58 127/141/127 
f 35/147/35 52/52/52 58/58/58 
f 35/147/35 126/148/126 52/52/52 
f 126/148/126 28/149/28 52/52/52 
f 28/149/28 53/53/53 52/52/52 
f 28/149/28 67/67/67 53/53/53 
f 67/67/67 23/150/23 54/54/54 
f 68/68/68 23/150/23 67/67/67 
f 28/149/28 68/68/68 67/67/67 
f 23/150/23 110/151/110 54/54/54 
f 110/151/110 106/142/106 54/54/54 
f 70/70/70 23/150/23 68/68/68 
f 70/70/70 24/152/24 23/150/23 
f 26/153/26 24/152/24 70/70/70 
f 68/68/68 28/149/28 69/69/69 
f 69/69/69 26/153/26 70/70/70 
f 74/74/74 98/154/98 75/75/75 
f 75/75/75 95/155/95 77/77/77 
f 98/154/98 95/155/95 75/75/75 
f 79/79/79 77/77/77 95/155/95 
f 79/79/79 95/155/95 94/156/94 
f 94/156/94 80/80/80 79/79/79 
f 128/157/128 94/94/94 93/93/93 
f 129/158/129 128/157/128 93/93/93 
f 74/159/74 96/96/96 98/98/98 
f 96/96/96 74/159/74 99/99/99 
f 99/99/99 74/159/74 72/139/72 
f 48/48/48 99/99/99 72/139/72 
f 100/100/100 129/158/129 93/93/93 
f 102/102/102 9/9/9 119/160/119 
f 105/105/105 65/161/65 106/106/106 
f 105/105/105 108/108/108 65/161/65 
f 66/162/66 108/108/108 109/109/109 
f 66/162/66 65/161/65 108/108/108 
f 110/110/110 103/103/103 106/106/106 
f 119/160/119 9/9/9 7/7/7 
f 11/11/11 119/160/119 7/7/7 
f 113/113/113 112/112/112 6/136/6 
f 113/113/113 6/136/6 43/43/43 
f 111/111/111 13/163/13 112/112/112 
f 111/111/111 117/117/117 13/163/13 
f 116/116/116 13/163/13 117/117/117 
f 15/164/15 118/118/118 115/115/115 
f 116/116/116 118/118/118 13/163/13 
f 114/114/114 119/119/119 11/165/11 
f 120/120/120 114/114/114 11/165/11 
f 115/115/115 120/120/120 15/164/15 
f 102/143/102 119/119/119 56/56/56 
f 126/133/126 35/35/35 125/132/125 
f 121/121/121 123/123/123 30/140/30 
f 34/166/34 123/123/123 122/122/122 
f 34/166/34 35/147/35 123/123/123 
f 36/167/36 122/122/122 121/121/121 
f 36/167/36 34/166/34 122/122/122 
f 94/156/94 128/168/128 80/80/80 
# 0 polygons - 249 triangles

