# 3ds Max Wavefront OBJ Exporter v0.97b - (c)2007 guruware
# File Created: 23.02.2016 18:11:01

mtllib godzillaLeftArm.mtl

#
# object Arm_Left
#

v  61.8064 130.9353 32.0693
v  61.9209 134.0455 30.1677
v  65.5471 133.4279 30.3867
v  65.2835 130.7486 33.6330
v  68.0914 133.0781 31.3178
v  64.1993 126.7865 35.6552
v  67.0051 128.2176 36.6371
v  68.9663 131.5840 35.0002
v  71.8246 131.7935 37.7080
v  66.3166 125.1427 36.9250
v  67.8549 126.4986 37.5250
v  68.7552 126.3351 37.9008
v  70.5992 133.2683 32.8937
v  72.2108 134.3106 30.3986
v  71.3667 132.1699 35.2510
v  72.7514 132.9842 36.5304
v  72.8922 133.8914 34.0865
v  73.6387 133.8492 34.1880
v  73.7190 132.8867 36.2907
v  76.8930 133.2544 35.0144
v  79.5131 132.0395 35.2830
v  76.9510 132.4289 36.2081
v  72.6543 135.2703 34.6892
v  73.3953 134.1271 30.4154
v  75.1299 134.9656 30.6472
v  75.0811 134.4117 30.5157
v  76.9032 133.7048 31.4241
v  75.0210 134.1373 32.0101
v  47.7184 129.5741 33.2803
v  40.7439 129.2154 33.2864
v  46.5511 131.1943 28.2293
v  40.0193 131.4677 38.6159
v  39.8853 129.1847 34.1011
v  39.2114 132.5699 28.8542
v  36.1046 128.6847 33.5799
v  36.5750 133.8087 26.9505
v  37.4837 130.8532 39.7478
v  25.6058 127.6819 37.9947
v  27.9639 128.2163 33.1219
v  27.8595 132.8623 42.6528
v  36.8364 137.9433 39.9672
v  40.0395 134.9100 41.0659
v  40.3112 139.7325 38.9000
v  37.5891 142.4205 32.6884
v  41.6006 142.2178 33.6978
v  51.7040 136.9885 39.3713
v  49.5487 132.2641 39.6368
v  56.1362 129.9103 35.5480
v  55.4332 131.3356 39.1010
v  56.5568 130.6172 38.9667
v  59.6222 126.9351 36.9919
v  57.4735 136.2055 39.3240
v  60.2915 135.2569 40.1554
v  62.7853 129.3232 40.6724
v  61.6880 125.7378 38.0496
v  61.5931 128.0999 33.7759
v  60.1453 138.1048 34.5069
v  57.8924 138.8799 34.1347
v  59.4691 136.5933 30.7263
v  67.7461 137.7563 32.7285
v  68.7417 137.2138 37.1411
v  67.9693 134.1993 41.5452
v  69.0578 136.2193 34.7147
v  70.1292 136.6318 37.1550
v  69.4167 134.5954 39.0430
v  69.5025 133.4185 41.7890
v  68.1149 131.0039 41.3336
v  66.9151 135.1808 30.3847
v  56.3757 132.5271 30.5185
v  60.5261 133.9376 30.6631
v  68.9242 137.1959 32.2375
v  71.7277 135.5409 30.1604
v  71.4320 136.7336 31.6944
v  72.7507 131.1644 42.0148
v  72.9650 133.1235 41.3487
v  73.0400 132.5994 38.8152
v  74.1644 132.6707 41.0585
v  72.3420 129.6511 40.4698
v  73.3756 129.3254 40.0350
v  76.9827 130.6778 41.3191
v  77.1364 131.9113 40.4610
v  80.5096 129.0647 38.9179
v  78.9989 130.8084 39.8334
v  72.7714 136.1761 31.5257
v  74.7671 134.9662 32.2434
v  75.3247 135.3194 31.5373
v  72.3845 136.2483 36.9408
v  72.9588 133.8493 37.5771
v  74.3417 135.8938 36.6086
v  76.4601 135.0717 36.4014
v  76.6505 133.2127 37.2390
v  76.4257 134.3502 34.8564
v  69.9287 129.3816 40.4555
v  72.6872 130.9827 38.5215
v  73.4894 130.4599 38.3214
v  77.2274 131.5175 38.6336
v  77.0385 130.4922 38.8132
v  72.8228 132.9754 38.0881
v  66.3029 125.7623 40.0891
v  65.5585 124.4650 38.4888
v  66.7224 124.1522 38.4319
v  69.1567 124.1864 37.5720
v  68.6226 123.6065 38.5069
v  70.6298 123.7787 38.6456
v  69.1904 124.8084 39.7417
v  67.9290 128.4937 39.6718
v  67.9651 127.1426 39.0749
v  25.4590 143.2410 28.8121
v  29.8139 139.9342 39.9777
v  34.0402 140.3483 25.9852
v  38.4549 139.2805 27.3508
v  39.4835 139.8168 28.0589
v  43.6236 139.1930 27.7874
v  42.8451 135.0119 27.0187
v  50.8714 137.7402 28.6465
v  51.1105 140.2987 34.6182
v  22.4522 125.8120 34.2933
v  25.8943 128.0084 26.5131
v  29.8978 134.1030 26.2928
v  59.3466 130.1815 32.5553
v  68.8775 126.6269 39.0724
v  69.9210 125.2074 38.2502
v  72.3200 124.3582 38.3970
v  70.0148 125.4070 38.8733
v  72.2422 133.9639 32.2020
v  72.4346 135.0031 33.6719
v  72.1658 135.3757 33.0690
v  73.3510 133.8258 31.9945
v  41.5019 131.4411 28.6832
v  76.8110 129.4915 40.1065
v  26.1447 138.4789 24.1478
# 131 vertices

vn 0.0759 -0.5463 -0.8341
vn -0.1158 -0.1862 -0.9757
vn 0.1341 -0.4260 -0.8947
vn 0.3307 -0.6622 -0.6724
vn 0.1864 -0.7070 -0.6822
vn 0.1247 -0.6732 -0.7289
vn 0.6442 -0.4155 -0.6422
vn 0.3991 -0.7651 -0.5053
vn 0.5263 -0.6967 -0.4874
vn 0.0389 -0.5766 -0.8161
vn 0.6252 0.2168 -0.7498
vn 0.5023 0.5815 -0.6400
vn 0.3736 -0.8637 -0.3383
vn 0.0054 -0.6558 -0.7549
vn 0.4277 -0.8432 -0.3257
vn 0.5048 -0.8629 -0.0225
vn 0.4935 -0.3806 -0.7820
vn 0.0774 -0.3578 -0.9306
vn -0.1072 -0.9926 0.0573
vn -0.0419 -0.5085 -0.8600
vn 0.8651 -0.4526 -0.2163
vn -0.1040 -0.9898 0.0975
vn 0.3238 0.8090 -0.4905
vn 0.0683 -0.6787 -0.7312
vn 0.3822 0.5382 -0.7512
vn 0.1979 -0.4391 -0.8764
vn 0.8806 -0.4735 0.0197
vn 0.1149 -0.7699 0.6278
vn 0.0770 -0.9970 -0.0088
vn -0.1100 -0.9868 -0.1190
vn 0.1304 -0.6251 -0.7696
vn 0.2364 -0.7648 0.5993
vn 0.1853 -0.9818 0.0425
vn -0.0507 -0.5869 -0.8081
vn 0.1402 -0.9702 -0.1977
vn 0.2496 -0.4249 -0.8702
vn 0.2330 -0.6346 0.7369
vn 0.1129 -0.9153 0.3867
vn 0.1237 -0.8891 -0.4406
vn 0.1468 -0.3057 0.9408
vn 0.0497 0.4857 0.8727
vn -0.0386 -0.0545 0.9978
vn -0.0209 0.7263 0.6871
vn 0.0910 0.9958 0.0026
vn 0.1134 0.9929 0.0346
vn 0.1414 0.4813 0.8651
vn 0.0481 -0.5424 0.8387
vn -0.3096 -0.9442 -0.1121
vn -0.1082 -0.5352 0.8378
vn -0.4185 -0.5333 0.7351
vn -0.4946 -0.8678 0.0487
vn 0.0261 0.5495 0.8351
vn -0.1266 0.4821 0.8669
vn -0.2243 -0.2716 0.9359
vn -0.4717 -0.8596 0.1964
vn -0.0401 -0.7184 -0.6945
vn 0.1356 0.9889 0.0616
vn 0.2352 0.9716 -0.0265
vn 0.1003 0.5412 -0.8349
vn 0.2442 0.9284 -0.2801
vn 0.3046 0.9081 0.2874
vn 0.0897 0.4990 0.8620
vn 0.5470 0.8364 -0.0355
vn 0.2872 0.9121 0.2925
vn 0.4744 0.7029 0.5299
vn 0.0474 0.4622 0.8855
vn -0.0839 -0.3101 0.9470
vn 0.0710 0.2326 -0.9700
vn 0.1286 -0.5182 -0.8455
vn -0.1234 -0.2662 -0.9560
vn 0.2316 0.9410 -0.2467
vn 0.0688 0.3851 -0.9203
vn 0.2525 0.9672 -0.0279
vn 0.0946 -0.2241 0.9700
vn 0.3528 0.7675 0.5352
vn 0.5899 0.6959 -0.4095
vn 0.3259 0.8273 0.4575
vn -0.0371 -0.9838 0.1753
vn -0.1300 -0.9915 0.0084
vn 0.3058 -0.1274 0.9435
vn 0.4164 0.8409 0.3456
vn 0.8515 -0.4615 -0.2489
vn 0.7343 0.6119 0.2940
vn 0.3351 0.9420 -0.0180
vn 0.3128 0.2878 0.9052
vn 0.5435 0.8273 0.1422
vn 0.2755 0.8969 0.3459
vn 0.5036 0.0254 0.8636
vn 0.3020 0.8905 0.3403
vn 0.4953 0.8083 0.3184
vn 0.2744 -0.2157 0.9371
vn 0.3775 0.5082 -0.7741
vn 0.1636 -0.9311 0.3260
vn -0.0370 -0.4595 -0.8874
vn -0.1637 -0.4141 -0.8954
vn 0.2904 0.5641 -0.7729
vn -0.0242 -0.4893 -0.8718
vn 0.9794 0.1537 0.1313
vn -0.0141 -0.3633 0.9316
vn -0.3068 -0.9431 0.1283
vn -0.2368 -0.9675 0.0892
vn 0.1768 -0.4169 -0.8916
vn -0.1354 -0.9864 0.0928
vn 0.2635 -0.9424 0.2061
vn 0.1980 -0.1879 0.9620
vn 0.5871 -0.5913 0.5529
vn 0.8544 0.3695 0.3653
vn 0.0412 0.9488 -0.3133
vn 0.0983 0.7135 0.6937
vn 0.2380 0.4973 -0.8343
vn 0.4327 0.3390 -0.8354
vn 0.0856 0.6214 -0.7788
vn 0.1311 0.5972 -0.7913
vn -0.0814 -0.0920 -0.9924
vn 0.2640 0.4855 -0.8334
vn 0.2211 0.9706 0.0951
vn 0.5744 -0.7737 -0.2673
vn 0.8339 -0.5496 -0.0510
vn 0.2642 -0.4476 -0.8543
vn -0.1794 -0.6738 -0.7168
vn 0.5597 0.7314 0.3897
vn 0.4646 0.5841 -0.6655
vn 0.9944 -0.0636 -0.0842
vn 0.6033 0.7393 0.2991
vn 0.3100 -0.9138 0.2623
vn 0.8450 0.4504 -0.2881
vn 0.5900 0.6429 0.4885
vn 0.0847 -0.9169 0.3901
vn -0.2268 -0.6706 -0.7063
vn 0.0013 -0.9926 0.1211
vn 0.1787 0.2036 -0.9626
# 131 vertex normals

vt 0.6246 0.3934 0.0000
vt 0.6362 0.4081 0.0000
vt 0.6199 0.4213 0.0000
vt 0.6058 0.4018 0.0000
vt 0.6046 0.4299 0.0000
vt 0.6005 0.3786 0.0000
vt 0.5859 0.3868 0.0000
vt 0.5841 0.4123 0.0000
vt 0.5619 0.4112 0.0000
vt 0.5901 0.3670 0.0000
vt 0.5812 0.3714 0.0000
vt 0.5760 0.3683 0.0000
vt 0.5846 0.4313 0.0000
vt 0.5952 0.4508 0.0000
vt 0.5718 0.4210 0.0000
vt 0.5577 0.4231 0.0000
vt 0.5647 0.4357 0.0000
vt 0.5605 0.4379 0.0000
vt 0.5532 0.4267 0.0000
vt 0.5441 0.4432 0.0000
vt 0.5287 0.4436 0.0000
vt 0.5400 0.4368 0.0000
vt 0.5687 0.4427 0.0000
vt 0.5904 0.4548 0.0000
vt 0.5856 0.4663 0.0000
vt 0.5834 0.4637 0.0000
vt 0.5735 0.4721 0.0000
vt 0.5768 0.4590 0.0000
vt 0.7624 0.1609 0.0000
vt 0.7346 0.1555 0.0000
vt 0.7613 0.1295 0.0000
vt 0.7260 0.1878 0.0000
vt 0.7291 0.1571 0.0000
vt 0.7380 0.1228 0.0000
vt 0.7077 0.1495 0.0000
vt 0.7222 0.1181 0.0000
vt 0.7122 0.1875 0.0000
vt 0.6555 0.1524 0.0000
vt 0.6683 0.1309 0.0000
vt 0.6459 0.1984 0.0000
vt 0.6990 0.2304 0.0000
vt 0.7255 0.2147 0.0000
vt 0.7199 0.2448 0.0000
vt 0.6920 0.2797 0.0000
vt 0.7213 0.2755 0.0000
vt 0.7796 0.2313 0.0000
vt 0.7704 0.2002 0.0000
vt 0.8011 0.1712 0.0000
vt 0.8032 0.1979 0.0000
vt 0.8110 0.1955 0.0000
vt 0.8266 0.1700 0.0000
vt 0.8165 0.2252 0.0000
vt 0.8337 0.2214 0.0000
vt 0.8461 0.1906 0.0000
vt 0.8377 0.1674 0.0000
vt 0.8242 0.1450 0.0000
vt 0.8313 0.2515 0.0000
vt 0.8156 0.2575 0.0000
vt 0.8253 0.2771 0.0000
vt 0.8710 0.2607 0.0000
vt 0.8754 0.2406 0.0000
vt 0.8741 0.2163 0.0000
vt 0.8801 0.2520 0.0000
vt 0.8830 0.2390 0.0000
vt 0.8823 0.2258 0.0000
vt 0.8818 0.2128 0.0000
vt 0.8742 0.2009 0.0000
vt 0.8694 0.2818 0.0000
vt 0.8155 0.3139 0.0000
vt 0.8313 0.2896 0.0000
vt 0.8783 0.2627 0.0000
vt 0.8968 0.2801 0.0000
vt 0.8978 0.2698 0.0000
vt 0.8991 0.1971 0.0000
vt 0.8999 0.2043 0.0000
vt 0.9066 0.2145 0.0000
vt 0.9049 0.2025 0.0000
vt 0.9009 0.1879 0.0000
vt 0.9061 0.1864 0.0000
vt 0.9152 0.1940 0.0000
vt 0.9160 0.1990 0.0000
vt 0.9326 0.1912 0.0000
vt 0.9244 0.1953 0.0000
vt 0.9023 0.2712 0.0000
vt 0.9146 0.2693 0.0000
vt 0.9144 0.2753 0.0000
vt 0.9018 0.2378 0.0000
vt 0.9073 0.2280 0.0000
vt 0.9068 0.2379 0.0000
vt 0.9184 0.2380 0.0000
vt 0.9253 0.2323 0.0000
vt 0.9244 0.2442 0.0000
vt 0.5583 0.3937 0.0000
vt 0.5468 0.4083 0.0000
vt 0.5414 0.4080 0.0000
vt 0.5302 0.4148 0.0000
vt 0.5289 0.4109 0.0000
vt 0.5583 0.4147 0.0000
vt 0.8653 0.1715 0.0000
vt 0.8610 0.1635 0.0000
vt 0.8666 0.1619 0.0000
vt 0.8787 0.1556 0.0000
vt 0.8774 0.1615 0.0000
vt 0.8849 0.1601 0.0000
vt 0.8799 0.1672 0.0000
vt 0.8732 0.1871 0.0000
vt 0.8755 0.1804 0.0000
vt 0.6298 0.3076 0.0000
vt 0.6508 0.2445 0.0000
vt 0.6793 0.3213 0.0000
vt 0.6996 0.3125 0.0000
vt 0.7172 0.3062 0.0000
vt 0.7358 0.3026 0.0000
vt 0.7418 0.3189 0.0000
vt 0.7807 0.2979 0.0000
vt 0.7764 0.2642 0.0000
vt 0.6621 0.1257 0.0000
vt 0.6733 0.1012 0.0000
vt 0.6742 0.1049 0.0000
vt 0.6274 0.3808 0.0000
vt 0.6366 0.3678 0.0000
vt 0.6432 0.3992 0.0000
vt 0.6211 0.3816 0.0000
vt 0.6195 0.4352 0.0000
vt 0.5742 0.3762 0.0000
vt 0.5706 0.3713 0.0000
vt 0.5750 0.3570 0.0000
vt 0.5696 0.3599 0.0000
vt 0.5578 0.3488 0.0000
vt 0.5662 0.3624 0.0000
vt 0.5828 0.4452 0.0000
vt 0.5564 0.4174 0.0000
vt 0.5392 0.4308 0.0000
vt 0.5755 0.4380 0.0000
vt 0.5488 0.4469 0.0000
vt 0.5774 0.4401 0.0000
vt 0.5824 0.4504 0.0000
vt 0.6013 0.4574 0.0000
vt 0.5728 0.4547 0.0000
vt 0.8084 0.1410 0.0000
vt 0.7971 0.1380 0.0000
vt 0.7473 0.1260 0.0000
vt 0.8412 0.1492 0.0000
vt 0.8414 0.2885 0.0000
vt 0.8854 0.1903 0.0000
vt 0.9170 0.1885 0.0000
vt 0.9219 0.2040 0.0000
vt 0.9037 0.2627 0.0000
vt 0.9133 0.2803 0.0000
vt 0.9266 0.2783 0.0000
vt 0.9041 0.2559 0.0000
vt 0.9055 0.2473 0.0000
vt 0.9029 0.2238 0.0000
vt 0.9388 0.2386 0.0000
vt 0.5692 0.3848 0.0000
vt 0.5437 0.3986 0.0000
vt 0.5504 0.4155 0.0000
vt 0.5387 0.3995 0.0000
vt 0.5270 0.4048 0.0000
vt 0.5073 0.4140 0.0000
vt 0.8604 0.1541 0.0000
vt 0.8935 0.1592 0.0000
vt 0.8857 0.1690 0.0000
vt 0.8795 0.1754 0.0000
vt 0.7023 0.3478 0.0000
vt 0.7284 0.3406 0.0000
vt 0.6736 0.3568 0.0000
vt 0.6406 0.3334 0.0000
vt 0.7451 0.3363 0.0000
vt 0.7729 0.3279 0.0000
vt 0.6646 0.3627 0.0000
# 171 texture coords

g Arm_Left
usemtl Godzilla
s 1
f 1/1/1 2/2/2 3/3/3 
f 4/4/4 1/1/1 3/3/3 
f 4/4/4 3/3/3 5/5/5 
f 6/6/6 4/4/4 7/7/7 
f 7/7/7 4/4/4 8/8/8 
f 8/8/8 4/4/4 5/5/5 
f 8/8/8 9/9/9 7/7/7 
f 10/10/10 6/6/6 7/7/7 
f 10/10/10 7/7/7 11/11/11 
f 10/10/10 11/11/11 12/12/12 
f 8/8/8 5/5/5 13/13/13 
f 13/13/13 5/5/5 14/14/14 
f 9/9/9 8/8/8 15/15/15 
f 15/15/15 8/8/8 13/13/13 
f 15/15/15 16/16/16 9/9/9 
f 15/15/15 13/13/13 17/17/17 
f 16/16/16 15/15/15 17/17/17 
f 16/16/16 17/17/17 18/18/18 
f 16/16/16 18/18/18 19/19/19 
f 20/20/20 21/21/21 22/22/22 
f 19/19/19 20/20/20 22/22/22 
f 19/19/19 18/18/18 20/20/20 
f 18/18/18 17/17/17 23/23/23 
f 24/24/24 25/25/25 26/26/26 
f 26/26/26 25/25/25 27/27/27 
f 26/26/26 27/27/27 28/28/28 
f 29/29/29 30/30/30 31/31/31 
f 32/32/32 30/30/30 29/29/29 
f 32/32/32 33/33/33 30/30/30 
f 30/30/30 33/33/33 34/34/34 
f 35/35/35 34/34/34 33/33/33 
f 35/35/35 36/36/36 34/34/34 
f 37/37/37 33/33/33 32/32/32 
f 37/37/37 35/35/35 33/33/33 
f 35/35/35 37/37/37 38/38/38 
f 38/38/38 39/39/39 35/35/35 
f 39/39/39 36/36/36 35/35/35 
f 38/38/38 37/37/37 40/40/40 
f 37/37/37 41/41/41 40/40/40 
f 37/37/37 42/42/42 41/41/41 
f 42/42/42 43/43/43 41/41/41 
f 43/43/43 44/44/44 41/41/41 
f 43/43/43 45/45/45 44/44/44 
f 37/37/37 32/32/32 42/42/42 
f 46/46/46 43/43/43 42/42/42 
f 42/42/42 47/47/47 46/46/46 
f 42/42/42 32/32/32 47/47/47 
f 32/32/32 29/29/29 47/47/47 
f 47/47/47 29/29/29 48/48/48 
f 47/47/47 48/48/48 49/49/49 
f 49/49/49 46/46/46 47/47/47 
f 50/50/50 49/49/49 48/48/48 
f 50/50/50 48/48/48 51/51/51 
f 52/52/52 49/49/49 50/50/50 
f 49/49/49 52/52/52 46/46/46 
f 52/52/52 50/50/50 53/53/53 
f 50/50/50 51/51/51 54/54/54 
f 53/53/53 50/50/50 54/54/54 
f 54/54/54 51/51/51 55/55/55 
f 56/56/56 51/51/51 48/48/48 
f 52/52/52 53/53/53 57/57/57 
f 52/52/52 57/57/57 58/58/58 
f 58/58/58 46/46/46 52/52/52 
f 59/59/59 58/58/58 57/57/57 
f 60/60/60 59/59/59 57/57/57 
f 61/61/61 60/60/60 57/57/57 
f 61/61/61 57/57/57 53/53/53 
f 61/61/61 53/53/53 62/62/62 
f 62/62/62 53/53/53 54/54/54 
f 63/63/63 60/60/60 61/61/61 
f 64/64/64 63/63/63 61/61/61 
f 65/65/65 64/64/64 61/61/61 
f 65/65/65 61/61/61 62/62/62 
f 66/66/66 65/65/65 62/62/62 
f 54/54/54 67/67/67 62/62/62 
f 66/66/66 62/62/62 67/67/67 
f 59/59/59 60/60/60 68/68/68 
f 69/69/69 59/59/59 70/70/70 
f 71/71/71 60/60/60 63/63/63 
f 68/68/68 60/60/60 71/71/71 
f 71/71/71 72/72/72 68/68/68 
f 71/71/71 73/73/73 72/72/72 
f 74/74/74 66/66/66 67/67/67 
f 74/74/74 75/75/75 66/66/66 
f 66/66/66 75/75/75 65/65/65 
f 65/65/65 75/75/75 76/76/76 
f 76/76/76 75/75/75 77/77/77 
f 77/77/77 75/75/75 74/74/74 
f 74/74/74 78/78/78 79/79/79 
f 79/79/79 80/80/80 74/74/74 
f 77/77/77 74/74/74 80/80/80 
f 77/77/77 80/80/80 81/81/81 
f 80/80/80 82/82/82 83/83/83 
f 83/83/83 81/81/81 80/80/80 
f 72/72/72 73/73/73 84/84/84 
f 85/85/85 86/86/86 84/84/84 
f 87/87/87 64/64/64 65/65/65 
f 87/87/87 65/65/65 88/88/88 
f 89/89/89 87/87/87 88/88/88 
f 90/90/90 89/89/89 88/88/88 
f 90/90/90 88/88/88 91/91/91 
f 89/89/89 90/90/90 92/92/92 
f 93/93/93 9/9/9 94/94/94 
f 95/95/95 96/96/96 97/97/97 
f 98/98/98 94/94/94 9/9/9 
f 99/99/99 100/100/100 101/101/101 
f 55/55/55 100/100/100 99/99/99 
f 101/101/101 102/102/102 103/103/103 
f 104/104/104 103/103/103 102/102/102 
f 105/105/105 103/103/103 104/104/104 
f 101/101/101 105/105/105 99/99/99 
f 101/101/101 103/103/103 105/105/105 
f 54/54/54 55/55/55 99/99/99 
f 106/106/106 54/54/54 99/99/99 
f 99/99/99 107/107/107 106/106/106 
f 67/67/67 54/54/54 106/106/106 
f 44/44/44 108/108/108 109/109/109 
f 109/109/109 40/40/40 41/41/41 
f 109/109/109 41/41/41 44/44/44 
f 110/110/110 108/108/108 44/44/44 
f 44/44/44 111/111/111 110/110/110 
f 44/44/44 112/112/112 111/111/111 
f 112/112/112 113/113/113 114/114/114 
f 45/45/45 112/112/112 44/44/44 
f 112/112/112 45/45/45 113/113/113 
f 113/113/113 115/115/115 114/114/114 
f 59/59/59 69/69/69 115/115/115 
f 116/116/116 115/115/115 113/113/113 
f 113/113/113 45/45/45 116/116/116 
f 59/59/59 115/115/115 116/116/116 
f 116/116/116 45/45/45 43/43/43 
f 116/116/116 43/43/43 46/46/46 
f 58/58/58 116/116/116 46/46/46 
f 59/59/59 116/116/116 58/58/58 
f 117/117/117 118/118/118 119/119/119 
f 120/120/120 69/121/69 70/122/70 
f 1/1/1 120/120/120 70/122/70 
f 56/123/56 120/120/120 1/1/1 
f 2/2/2 1/1/1 70/122/70 
f 56/123/56 1/1/1 4/4/4 
f 6/6/6 56/123/56 4/4/4 
f 68/124/68 3/3/3 2/2/2 
f 5/5/5 3/3/3 68/124/68 
f 12/12/12 11/11/11 107/125/107 
f 107/125/107 11/11/11 7/7/7 
f 12/12/12 107/125/107 121/126/121 
f 102/127/102 10/10/10 12/12/12 
f 102/127/102 12/12/12 122/128/122 
f 123/129/123 102/127/102 122/128/122 
f 12/12/12 124/130/124 122/128/122 
f 12/12/12 121/126/121 124/130/124 
f 122/128/122 124/130/124 123/129/123 
f 14/14/14 5/5/5 68/124/68 
f 13/13/13 14/14/14 125/131/125 
f 9/9/9 16/16/16 98/98/98 
f 88/132/88 16/16/16 19/19/19 
f 88/132/88 98/98/98 16/16/16 
f 91/133/91 88/132/88 19/19/19 
f 22/22/22 91/133/91 19/19/19 
f 22/22/22 21/21/21 91/133/91 
f 126/134/126 17/17/17 13/13/13 
f 126/134/126 13/13/13 125/131/125 
f 17/17/17 126/134/126 23/23/23 
f 18/18/18 23/23/23 92/135/92 
f 92/135/92 21/21/21 20/20/20 
f 92/135/92 20/20/20 18/18/18 
f 127/136/127 125/131/125 128/137/128 
f 24/24/24 128/137/128 125/131/125 
f 24/24/24 125/131/125 14/14/14 
f 24/24/24 14/14/14 72/138/72 
f 24/24/24 72/138/72 25/25/25 
f 28/28/28 24/24/24 26/26/26 
f 28/28/28 128/137/128 24/24/24 
f 85/139/85 128/137/128 28/28/28 
f 85/139/85 127/136/127 128/137/128 
f 27/27/27 85/139/85 28/28/28 
f 14/14/14 68/124/68 72/138/72 
f 120/140/120 56/56/56 48/48/48 
f 48/48/48 69/141/69 120/140/120 
f 29/29/29 69/141/69 48/48/48 
f 29/29/29 31/31/31 69/141/69 
f 31/31/31 30/30/30 129/142/129 
f 129/142/129 30/30/30 34/34/34 
f 39/39/39 119/119/119 36/36/36 
f 51/51/51 6/143/6 55/55/55 
f 51/51/51 56/56/56 6/143/6 
f 68/68/68 2/144/2 59/59/59 
f 2/144/2 70/70/70 59/59/59 
f 74/74/74 67/67/67 93/145/93 
f 74/74/74 93/145/93 78/78/78 
f 79/79/79 130/146/130 80/80/80 
f 80/80/80 130/146/130 82/82/82 
f 77/77/77 96/147/96 76/76/76 
f 77/77/77 81/81/81 96/147/96 
f 96/147/96 81/81/81 83/83/83 
f 83/83/83 82/82/82 96/147/96 
f 84/84/84 73/73/73 127/148/127 
f 85/85/85 84/84/84 127/148/127 
f 25/149/25 84/84/84 86/86/86 
f 25/149/25 72/72/72 84/84/84 
f 27/150/27 25/149/25 86/86/86 
f 27/150/27 86/86/86 85/85/85 
f 127/148/127 63/63/63 126/151/126 
f 126/151/126 63/63/63 23/152/23 
f 23/152/23 63/63/63 64/64/64 
f 23/152/23 64/64/64 87/87/87 
f 23/152/23 87/87/87 89/89/89 
f 88/88/88 65/65/65 98/153/98 
f 98/153/98 65/65/65 76/76/76 
f 21/154/21 90/90/90 91/91/91 
f 89/89/89 92/92/92 23/152/23 
f 92/92/92 90/90/90 21/154/21 
f 127/148/127 71/71/71 63/63/63 
f 127/148/127 73/73/73 71/71/71 
f 93/93/93 106/155/106 9/9/9 
f 93/93/93 94/94/94 78/156/78 
f 78/156/78 94/94/94 95/95/95 
f 95/95/95 94/94/94 76/157/76 
f 78/156/78 95/95/95 79/158/79 
f 79/158/79 95/95/95 97/97/97 
f 79/158/79 97/97/97 130/159/130 
f 95/95/95 76/157/76 96/96/96 
f 82/160/82 130/159/130 97/97/97 
f 82/160/82 97/97/97 96/96/96 
f 98/98/98 76/157/76 94/94/94 
f 106/155/106 7/7/7 9/9/9 
f 107/125/107 7/7/7 106/155/106 
f 101/101/101 100/100/100 10/161/10 
f 100/100/100 6/143/6 10/161/10 
f 100/100/100 55/55/55 6/143/6 
f 101/101/101 10/161/10 102/102/102 
f 123/162/123 105/105/105 104/104/104 
f 124/163/124 105/105/105 123/162/123 
f 104/104/104 102/102/102 123/162/123 
f 121/164/121 107/107/107 99/99/99 
f 105/105/105 121/164/121 99/99/99 
f 105/105/105 124/163/124 121/164/121 
f 93/145/93 67/67/67 106/106/106 
f 126/134/126 125/131/125 127/136/127 
f 110/110/110 111/111/111 36/165/36 
f 36/165/36 111/111/111 112/112/112 
f 112/112/112 34/166/34 36/165/36 
f 114/114/114 34/166/34 112/112/112 
f 119/167/119 110/110/110 36/165/36 
f 131/168/131 110/110/110 119/167/119 
f 110/110/110 131/168/131 108/108/108 
f 114/114/114 129/169/129 34/166/34 
f 31/170/31 129/169/129 114/114/114 
f 114/114/114 115/115/115 31/170/31 
f 115/115/115 69/69/69 31/170/31 
f 131/168/131 119/167/119 118/171/118 
f 117/117/117 119/119/119 39/39/39 
# 0 polygons - 252 triangles

